<?xml version="1.0" encoding="UTF-8"?>
<!-- Created with Inkscape (http://www.inkscape.org/) -->
<svg width="256" height="256" version="1.1" viewBox="0 0 67.733 67.733" xmlns="http://www.w3.org/2000/svg">
 <g stroke-width=".26458">
  <path d="m38.907 37.366c-0.08679 0.071-3.7714 3.1014-3.9593 3.1922-1.3001 0.62781-2.799 0.76621-4.1052 1.3812-1.5485 0.72905-5.9249 3.8403-7.9039 4.3764-0.96496 0.26143-1.9995 0-2.9992 0-2.0855 0-4.8262 0.54755-5.6584-2.0305-0.44818-1.3884-0.33832-1.332-0.33832-2.7615 0-4.9469 0.81645-4.6537 4.6862-8.5157 6.3233-6.3107 1.5889-1.9847 9.5425-8.1303 2.0653-1.5958 0.36475-4.1895-1.1397-5.6668-1.1431-1.1224-3.9393-2.9477-5.1592-3.5696-0.83083-0.42352-2.9163-0.3349-3.4489-1.3633-0.05909-0.11411 1.3359-2.278 1.7034-2.7722 0.81412-1.0946 1.8668-1.2678 2.1775-2.8333 0.12988-0.6542-0.24767-1.3116-0.33138-1.9733-0.02703-0.21366 0.06716-0.44147 0-0.6461-0.0604-0.18405-0.54517-0.31001-0.31564-0.62732 0.11201-0.15485 2.0132 0 2.0427 0 1.2994 0 2.9746-0.19988 4.1898 0.3725 1.8393 0.86635 3.694 2.7861 5.2083 3.9922 0.99461 0.79215 2.1048 1.4387 3.0583 2.2798 0.99875 0.88109 0.74352 1.5678 0.99134 1.9396 0.71516 1.0727 2.8115 0.58857 3.8054 0.58857 2.5643 0 5.4758 0.2948 8.0404 0 0.24155-0.02777 0.41679-0.26621 0.65242-0.32618 0.79504-0.20234 1.487 0.17568 2.1956 0.31558 0.31668 0.06252 0.67965-0.14436 0.96836 0 0.21326 0.10663 0.19304 0.43738 0.31554 0.64195 2.6963 4.5028 2.2538 9.7898 2.2538 14.878 0 0.41078-0.32049 2.9198 0 3.2281 0.10866 0.10452 0.72959-0.05259 0.93994 0 0.63857 0.15964 1.7557 0.61314 2.2373 0.96133 1.5104 1.0919 1.6757 2.4456 2.5254 3.9752 1.6855 3.0344 0.82224-0.40535 1.8016 3.9231 0.57546 2.5432-1.6227 4.8484-3.403 6.3377-0.3162 0.26451-0.73703 0.39603-1.027 0.68903-1.1739 1.1861-5.5965 7.3753-6.8297 7.862-1.7758 0.70086-5.5085-0.39413-6.8719 0.63024-1.8179 1.3658-1.1063 3.0708-3.1676 3.484-1.2118 0.24295-2.6958 0-3.9301 0h-9.7609c-1.415 0-2.9616-0.20986-4.3573 0-1.7947 0.26986-6.188 1.6423-7.6043-0.24234-0.1262-0.16792 0.06637-0.43087 0-0.63016-2e-3 -0.0061-0.62883-0.62471-0.63022-0.63024-0.96452-3.855 2.0169-5.4337 5.1534-6.1208 2.7347-0.59913 6.224-0.75458 8.9753-0.0013 2.2218 0.60835 4.1984 1.4104 6.5673 1.1589 2.3703-0.25158 4.5599-1.861 6.2864-3.3363 1.6707-1.4276 3.3452-2.8862 4.282-4.9759 0.13533-0.30184-0.05488-0.66616 0-0.99236 0.18324-1.0891 1.6136-2.885 0.98489-4.1347-0.26689-0.53047-0.78261-0.70623-1.2595-0.94486-0.50733-0.25386-1.0238-0.80977-1.5771-0.94585-0.86676-0.21317-4.4521 0.33347-4.9019-0.3107-0.37198-0.53278-0.60368-1.1508-0.90553-1.7263z" fill="#f60"/>
  <path d="m38.91 25.308c-3.5797-0.14347-7.1907-0.92429-10.739-0.43041-6.071 0.84499-0.15602 9.9595-4.9128 10.658-1.1361 0.16675-4.9588 0.24539-5.8935-0.31554-0.20144-0.12089-0.14937-0.46416-0.31558-0.6302-0.16798-0.1678-0.46926-0.15159-0.63613-0.32049-1.133-1.1468-1.4361-2.8112-2.3678-4.0531-0.39341-0.52442-1.0072-0.85898-1.3907-1.3907-1.3766-1.9088 0.90085-0.10393-0.99169-1.9962-0.28749-0.28745-0.72658-0.38978-1.0148-0.67648-0.7584-0.75436 0.24497-0.68355-0.95632-1.2875-1.3269-0.66713-3.871-0.93192-5.3757-0.63024-0.56394 0.11307-0.95176 0.87711-1.2571 1.2603-0.28419 0.35658-0.72105 0.58544-0.96189 0.97262-1.0983 1.7656-1.0181 6.2736-1.0211 8.3434-0.00359 2.4514 0.63845 6.404-0.67592 8.5515-0.34592 0.56518-0.96927 0.907-1.4057 1.4056-0.35321 0.4036-0.57413 0.91778-0.95668 1.2937-0.18179 0.17863-0.50679 0.15051-0.69163 0.32599-0.50188 0.47647-0.72883 1.2746-0.6312 1.9238 0.18172 1.2084 0.5962 2.4434 1.3605 3.4038 0.18813 0.23643 0.49197 0.37808 0.64093 0.64095 0.30232 0.53352 0.33579 1.2045 0.68888 1.7058 0.45668 0.64845 1.168 1.0776 1.6912 1.6737 0.27806 0.31684 0.43124 0.7287 0.70131 1.0524 0.26983 0.32341 2.2096 2.145 2.3672 2.3674 0.19992 0.28212 0.14995 0.6858 0.32055 0.98656 0.69812 1.2307 4.9291 5.5976 5.9827 6.2852 0.56084 0.36599 1.2537 0.47346 1.8658 0.74499 0.49862 0.22117 0.92171 0.66993 1.4637 0.73182 0.61711 0.07047 1.2098-0.30829 1.8291-0.35579 1.4719-0.1129 3.0078 0.40071 4.4286 0 1.3263-0.37406 2.4492-3.6913 2.6426-4.3896 0.46389-1.6757 0.04312-5.3898-1.0271-6.7311-1.4635-1.8342-4.6482-3.3557-3.946-6.1514 0.20774-0.82708 1.4417-1.8406 2.0052-2.3208 0.45524-0.3879 0.97814-0.69046 1.4397-1.0709 0.47268-0.38959 0.71754-1.108 1.2994-1.2994 0.41387-0.13617 0.87584 0.06209 1.3071 0 0.34568-0.04977 0.64954-0.27347 0.99396-0.33132 2.3389-0.39287 5.8991 0.55766 8.1003 0 2.5165-0.63755 0.93607-0.26514 2.2476-1.5944 0.3884-0.39366 0.96807-0.58418 1.3084-1.0201 0.13452-0.17231-0.04321-0.44152 0-0.65581 0.0675-0.33474 0.15227-0.6777 0.32796-0.97051 0.15426-0.25709 0.48374-0.37775 0.636-0.63604 0.60986-1.0345 0.81564-2.8254 0.98674-4.0026 0.14846-1.0215-0.27572-9.2075 0.23268-9.6393 0.28328-0.24059 0.74332 0 1.115 0" fill="#f55"/>
  <path d="m60.302 7.5253c-11.584 1.7734-17.208-0.1811-17.208 10.05 0 1.3277 0.72257 3.1211 0.31562 4.3616-1.2874 3.9242-11.418 0.77309-12.165 5.4825-0.22598 1.4244-0.24883 3.6767 0 5.1028 0.22072 1.2649 1.0337 1.9497 1.706 3.0779 2.1205 3.5581 5.2659 6.2772 8.0067 9.378 0.42558 0.48148 0.71156 1.0808 1.1659 1.5353 1.114 1.1143 4.1065 2.959 4.8916 4.4922 0.44708 0.8731-0.28808 3.9256-0.33356 4.3785-0.11278 1.1233-0.36003 2.3168 0 3.3868 0.1305 0.38782 0.74229 0.37506 1.0333 0.66273 0.99908 0.98766 1.7115 2.4651 2.9319 3.2828 1.1599 0.77716 6.0672 0.31307 7.1823-0.3748 1.2496-0.77074 1.9696-2.3103 2.9559-3.3136 0.16491-0.16775 0.46632-0.14781 0.63122-0.31558 1.2775-1.2998 2.6366-5.3907 1.9766-7.006-0.5779-1.4143-3.4518-4.336-3.4037-4.4786 0.56956-1.6853 2.1428-2.9954 3.7141-3.6744 0.34024-0.14702 0.74581-0.1379 1.0608-0.3332 0.63465-0.39349 1.1111-1.0098 1.7441-1.4059 0.30727-0.19226 0.74024-0.12232 1.0351-0.33313 0.42733-0.30554 0.65592-1.4547 0.95169-1.8986 0.3186-0.47816 0.50498-0.18606 0.63014-0.94474 0.62394-3.7821-0.95534-7.9626-2.589-11.258-0.47767-0.96346-2.5906-2.9954-2.8509-3.7996-0.49476-1.5281 0.84784-1.8423 1.5866-2.7708 0.5087-0.63932 1.0094-1.5075 1.3125-2.2819 0.61971-1.5832 0.43987-6.2161 3e-3 -7.9637-0.06534-0.26138-1.3475-2.2007-1.5806-2.5115-0.10296-0.13732-4.5097-0.49519-4.704-0.52708z" fill="#0f0"/>
  <path d="m-0.6658-0.18561c5.7057 6.8772 6.8049 15.756 14.906 14.47 4.9141-0.78023-1.0772-0.33759 1.956-1.3101 0.43094-0.13818 0.91064 0.07057 1.3577 0 0.5628-0.08885 1.0396-0.47844 1.5885-0.63127 0.92725-0.25817 1.9009-0.36914 2.7948-0.72614 0.70211-0.28041 1.2685-0.82924 1.945-1.1668 0.6228-0.31081 1.3464-0.40885 1.9402-0.77207 0.42955-0.26276 0.63281-0.81518 1.0682-1.0682 0.38922-0.22618 0.88134-0.1882 1.3131-0.31562 1.3346-0.39389 2.7992-1.0422 4.2633-0.66645 0.69075 0.17726 1.1395 0.88272 1.6418 1.3105 1.9819 1.6878 1.6906 1.0863 3.6657 3.3103 0.82753 0.9318 3.6284 4.5739 4.6058 4.9036 0.70318 0.2372 1.4981 0.14285 2.2263 0 3.2175-0.63115 3.2072-3.9935 3.2072-6.5406 0-0.53147 0.23752-1.7616 0-2.2307-0.50265-0.99266-2.9171-4.13-4.1199-4.4315-1.5262-0.38248-3.3216 0.22823-4.8852 0-0.34033-0.049676-0.63806-0.27398-0.97719-0.33129-1.4637-0.24734-6.4554-0.24275-7.9002 0-0.56421 0.09479-2.7376 0.84784-3.2628 0.3314-0.84347-0.82928 0.25593-0.32242-0.57672-0.87776-1.2908-0.86092-2.5584-1.9719-4.152-2.2293-2.5442-0.41089-5.282 0.50133-7.7302-0.31558-0.87184-0.29091-2.4454-0.040513-3.1355 0.31074-0.711 0.36191-3.8948 0-4.868 0-0.56058 0-3.8322 0.23675-4.24 0-0.87027-0.50519-1.345-0.34008-2.6312-1.0227z" fill="#ff0"/>
 </g>
</svg>
